<svg xmlns="http://www.w3.org/2000/svg" version="1.1" xmlns:xlink="http://www.w3.org/1999/xlink" xmlns:svgjs="http://svgjs.com/svgjs" width="25.73" height="32"><svg xmlns="http://www.w3.org/2000/svg" viewBox="0 0 25.73 32"><title>Fichier 1</title><g id="SvgjsG1001" data-name="Calque 2"><g id="SvgjsG1000" data-name="Calque 2"><path d="M11.84,20.19h0c0-.14-.07-.28-.1-.41Z"></path><path d="M11.73,19.76a32.32,32.32,0,0,0-3.22-8.07A27.81,27.81,0,0,0,6.63,7.8L5.45,6C2.65,2.3.06,2,.06,2c-.33.33.77,1,.77,1A14.31,14.31,0,0,1,4.45,7.74,22.34,22.34,0,0,0,.94,23.38a2,2,0,0,0,0,.24C2.35,32.64,7.63,32,7.63,32c5.49-.82,5-6.2,5-6.2a26.92,26.92,0,0,0-.42-3.9h0ZM7.35,29.85s-3.23-.33-4.44-5.49c0,0-.87-9.92,2.53-14.7A32,32,0,0,1,9.66,20.91a15.29,15.29,0,0,1-4.22.88s-1.87.27,0,.87a34.1,34.1,0,0,0,4.66-.32S10.83,29.28,7.35,29.85Z"></path><path d="M19.64.23S13-1.77,5.45,6A19.41,19.41,0,0,1,6.63,7.8h0S10.81,2.75,16.13,2c0,0,6.7-2.2,6.42,6.14,0,0,1.23,7.06-10.71,12,.13.55.25,1.12.36,1.7,0,0,9-2.68,12.49-10C24.69,11.84,29.13,2.92,19.64.23Z"></path><path d="M11.73,19.76v0Z"></path></g></g></svg><style>@media (prefers-color-scheme: light) { :root { filter: contrast(1) brightness(0.7); } }
</style></svg>