<svg fill="none" viewBox="0 0 25 25" xmlns="http://www.w3.org/2000/svg"><path d="m7.5 20c-1.375 0-2.4875 1.125-2.4875 2.5s1.1125 2.5 2.4875 2.5 2.5-1.125 2.5-2.5-1.125-2.5-2.5-2.5zm-7.5-20v2.5h2.5l4.5 9.4875-1.6875 3.0625c-.2.35-.3125.7625-.3125 1.2 0 1.375 1.125 2.5 2.5 2.5h15v-2.5h-14.475c-.175 0-.3125-.1375-.3125-.3125l.0375-.15 1.125-2.0375h9.3125c.9375 0 1.7625-.5125 2.1875-1.2875l4.475-8.1125c.1-.175.15-.3875.15-.6 0-.6875-.5625-1.25-1.25-1.25h-18.4875l-1.175-2.5zm20 20c-1.375 0-2.4875 1.125-2.4875 2.5s1.1125 2.5 2.4875 2.5 2.5-1.125 2.5-2.5-1.125-2.5-2.5-2.5z" fill="#fff"/></svg>
