<svg viewBox="0 0 55 51" xmlns="http://www.w3.org/2000/svg"><path clip-rule="evenodd" d="m25.0241 0 .0077.00000427c5.2647.00289556 10.3951 1.67699573 14.6645 4.78518573 1.2428.90479 1.5234 2.65484.6266 3.90884-.8967 1.254-2.6312 1.53707-3.874.63228-3.3228-2.41903-7.3152-3.72263-11.4125-3.72651-5.1595.02779-10.1 2.10811-13.7486 5.7894-3.64703 3.6799-5.70865 8.6623-5.73779 13.8659.02914 5.2036 2.09076 10.186 5.73779 13.8658 3.6467 3.6795 8.584 5.7595 13.7407 5.7894 4.8897-.0341 9.5912-1.9068 13.1855-5.2524 3.5981-3.349 5.8275-7.9327 6.2515-12.8534.1327-1.5405 1.478-2.6808 3.0048-2.5469 1.5269.134 2.657 1.4914 2.5242 3.0319-.5437 6.3107-3.4028 12.1892-8.0173 16.4843s-10.6519 6.6974-16.9299 6.7363l-.0154.0001-.0154-.0001c-6.6247-.0331-12.9686-2.703-17.65305-7.4295-4.6844-4.7265-7.3305863-11.1275-7.36338225-17.8117l-.00006775-.0138.00006775-.0139c.03279595-6.6842 2.67898225-13.0851 7.36338225-17.81163 4.68445-4.72649 11.02835-7.3964415 17.65305-7.42953208zm29.3591 8.37573c.9633 1.20269.7779 2.96557-.414 3.93757l-27.1947 22.1752c-1.1039.9001-2.7029.8147-3.7065-.1979l-10.2673-10.3596c-1.0837-1.0934-1.0837-2.8662 0-3.9596 1.0837-1.0935 2.8407-1.0935 3.9244 0l8.5023 8.5787 25.2533-20.59212c1.192-.97197 2.9392-.78493 3.9025.41775z" fill="#0050af" fill-rule="evenodd"/></svg>