<svg fill="none" viewBox="0 0 55 55" xmlns="http://www.w3.org/2000/svg"><path d="m24.2188 24.6616h2.5292c1.2761-.0114 2.2844-.3418 3.0249-.9912.752-.6494 1.128-1.5893 1.128-2.8198 0-1.1849-.3133-2.1021-.94-2.7515-.6152-.6608-1.5608-.9912-2.8369-.9912-1.1165 0-2.0337.3247-2.7514.9741-.7178.6381-1.0767 1.4755-1.0767 2.5122h-4.1528c0-1.276.3361-2.4381 1.0083-3.4863.6836-1.0482 1.6292-1.8628 2.8369-2.4438 1.2191-.5925 2.5805-.8887 4.0845-.8887 2.4837 0 4.4319.6266 5.8447 1.8799 1.4241 1.2418 2.1362 2.9736 2.1362 5.1953 0 1.1165-.3589 2.1704-1.0766 3.1616-.7064.9798-1.6236 1.7204-2.7515 2.2217 1.3672.4671 2.404 1.202 3.1103 2.2046.7178 1.0026 1.0767 2.1989 1.0767 3.5888 0 2.2331-.769 4.0105-2.3071 5.3321-1.5267 1.3216-3.5376 1.9824-6.0327 1.9824-2.3926 0-4.3523-.638-5.879-1.9141-1.5266-1.276-2.29-2.9736-2.29-5.0927h4.1528c0 1.0937.3646 1.9824 1.0938 2.666.7406.6836 1.7318 1.0254 2.9736 1.0254 1.2875 0 2.3015-.3418 3.042-1.0254.7406-.6836 1.1109-1.6748 1.1109-2.9737 0-1.3102-.3874-2.3185-1.1622-3.0249-.7747-.7063-1.9254-1.0595-3.4521-1.0595h-2.4438z" fill="#808080"/><path clip-rule="evenodd" d="m27.5 50c12.4264 0 22.5-10.0736 22.5-22.5s-10.0736-22.5-22.5-22.5-22.5 10.0736-22.5 22.5 10.0736 22.5 22.5 22.5zm0 5c15.1878 0 27.5-12.3122 27.5-27.5s-12.3122-27.5-27.5-27.5-27.5 12.3122-27.5 27.5 12.3122 27.5 27.5 27.5z" fill="#e6e6e6" fill-rule="evenodd"/></svg>
