<svg fill="none" viewBox="0 0 55 55" xmlns="http://www.w3.org/2000/svg"><path d="m36.1475 39h-16.731v-2.854l8.2886-9.0405c1.1963-1.333 2.0451-2.4439 2.5464-3.3326.5127-.9.769-1.8001.769-2.7001 0-1.1849-.3361-2.142-1.0083-2.8711-.6608-.7292-1.5552-1.0938-2.6831-1.0938-1.3444 0-2.3869.4102-3.1274 1.2305-.7406.8203-1.1109 1.9425-1.1109 3.3667h-4.1528c0-1.5153.3418-2.8768 1.0254-4.0845.695-1.2191 1.6805-2.1647 2.9565-2.8369 1.2875-.6722 2.7686-1.0083 4.4434-1.0083 2.4153 0 4.318.6095 5.708 1.8286 1.4014 1.2077 2.102 2.8825 2.102 5.0244 0 1.2419-.3532 2.5464-1.0595 3.9136-.695 1.3558-1.84 2.8996-3.4351 4.6313l-6.084 6.5113h11.5528z" fill="#808080"/><path clip-rule="evenodd" d="m27.5 50c12.4264 0 22.5-10.0736 22.5-22.5s-10.0736-22.5-22.5-22.5-22.5 10.0736-22.5 22.5 10.0736 22.5 22.5 22.5zm0 5c15.1878 0 27.5-12.3122 27.5-27.5s-12.3122-27.5-27.5-27.5-27.5 12.3122-27.5 27.5 12.3122 27.5 27.5 27.5z" fill="#e6e6e6" fill-rule="evenodd"/></svg>
